# Blender v3.0.0 OBJ File: ''
# www.blender.org
mtllib bat.mtl
o Cube.001
v -0.134954 -0.074752 0.135717
v -0.074752 0.617674 0.074752
v -0.134954 -0.074752 -0.135717
v -0.074752 0.617674 -0.074752
v 0.134954 -0.074752 0.135717
v 0.074752 0.617674 0.074752
v 0.134954 -0.074752 -0.135717
v 0.074752 0.617674 -0.074752
v -0.134954 0.009021 0.135717
v -0.134954 0.009021 -0.135717
v 0.134954 0.009021 -0.135717
v 0.134954 0.009021 0.135717
v -0.074752 0.025582 0.074752
v -0.074752 0.025582 -0.074752
v 0.074752 0.025582 -0.074752
v 0.074752 0.025582 0.074752
v -0.158954 1.489749 0.158953
v -0.158954 1.489749 -0.158954
v 0.158954 1.489749 0.158953
v 0.158954 1.489749 -0.158954
v -0.158954 2.181144 0.158953
v -0.158954 2.181144 -0.158954
v 0.158954 2.181144 0.158953
v 0.158954 2.181144 -0.158954
v -0.056753 2.294694 0.056753
v -0.056753 2.294694 -0.056753
v 0.056753 2.294694 0.056753
v 0.056753 2.294694 -0.056753
v -0.069945 -0.090894 0.070340
v -0.069945 -0.090894 -0.070340
v 0.069945 -0.090894 0.070340
v 0.069945 -0.090894 -0.070340
v -0.123998 1.053712 -0.123998
v 0.123998 1.053712 -0.123998
v 0.123998 1.053712 0.123997
v -0.123998 1.053712 0.123997
v -0.147441 1.271730 -0.147441
v -0.147441 1.271730 0.147441
v 0.147441 1.271730 -0.147441
v 0.147441 1.271730 0.147441
v 0.100137 0.835693 -0.100137
v 0.100137 0.835693 0.100137
v -0.100137 0.835693 -0.100137
v -0.100137 0.835693 0.100137
v 0.120200 2.237919 0.120199
v -0.120200 2.237919 0.120199
v -0.120200 2.237919 -0.120200
v 0.120200 2.237919 -0.120200
vn -1.0000 0.0000 0.0000
vn 0.0000 -0.0000 -1.0000
vn 1.0000 0.0000 0.0000
vn 0.0000 0.0000 1.0000
vn 0.0000 -0.9708 -0.2397
vn 0.0000 -0.0527 -0.9986
vn -0.0000 0.9650 0.2622
vn 0.2652 0.9642 -0.0000
vn 0.0000 0.9650 -0.2622
vn -0.2652 0.9642 -0.0000
vn 0.9986 -0.0527 0.0000
vn -0.9986 -0.0527 0.0000
vn 0.0000 -0.0527 0.9986
vn 0.0000 0.7452 0.6668
vn 0.0000 1.0000 0.0000
vn 0.0000 0.7452 -0.6668
vn 0.6668 0.7452 0.0000
vn -0.6668 0.7452 0.0000
vn 0.0000 -1.0000 0.0000
vn 0.0000 -0.9708 0.2397
vn 0.2410 -0.9705 0.0000
vn -0.2410 -0.9705 0.0000
vn 0.0000 -0.1154 0.9933
vn 0.0000 -0.1078 0.9942
vn -0.9933 -0.1154 0.0000
vn -0.9942 -0.1078 0.0000
vn 0.9933 -0.1154 -0.0000
vn 0.9942 -0.1078 0.0000
vn -0.0000 -0.1154 -0.9933
vn 0.0000 -0.1078 -0.9942
vn 0.0000 -0.1069 0.9943
vn -0.9943 -0.1069 0.0000
vn 0.9943 -0.1069 0.0000
vn 0.0000 -0.1069 -0.9943
vn 0.0000 -0.1157 -0.9933
vn 0.9933 -0.1157 0.0000
vn -0.9933 -0.1157 0.0000
vn 0.0000 -0.1157 0.9933
vn -0.8259 0.5638 0.0000
vn 0.8259 0.5638 0.0000
vn 0.0000 0.5638 -0.8259
vn 0.0000 0.5638 0.8259
usemtl Material.002
s 1
f 9//1 10//1 3//1 1//1
f 10//2 11//2 7//2 3//2
f 11//3 12//3 5//3 7//3
f 12//4 9//4 1//4 5//4
f 3//5 7//5 32//5 30//5
f 39//6 37//6 18//6 20//6
f 16//7 13//7 9//7 12//7
f 15//8 16//8 12//8 11//8
f 14//9 15//9 11//9 10//9
f 13//10 14//10 10//10 9//10
f 19//3 20//3 24//3 23//3
f 40//11 39//11 20//11 19//11
f 37//12 38//12 17//12 18//12
f 38//13 40//13 19//13 17//13
f 46//14 45//14 27//14 25//14
f 18//1 17//1 21//1 22//1
f 17//4 19//4 23//4 21//4
f 20//2 18//2 22//2 24//2
f 27//15 28//15 26//15 25//15
f 48//16 47//16 26//16 28//16
f 45//17 48//17 28//17 27//17
f 47//18 46//18 25//18 26//18
f 29//19 30//19 32//19 31//19
f 5//20 1//20 29//20 31//20
f 7//21 5//21 31//21 32//21
f 1//22 3//22 30//22 29//22
f 44//23 42//23 35//24 36//24
f 43//25 44//25 36//26 33//26
f 42//27 41//27 34//28 35//28
f 41//29 43//29 33//30 34//30
f 36//24 35//24 40//31 38//31
f 33//26 36//26 38//32 37//32
f 35//28 34//28 39//33 40//33
f 34//30 33//30 37//34 39//34
f 8//35 4//35 43//29 41//29
f 6//36 8//36 41//27 42//27
f 4//37 2//37 44//25 43//25
f 2//38 6//38 42//23 44//23
f 22//39 21//39 46//39 47//39
f 23//40 24//40 48//40 45//40
f 24//41 22//41 47//41 48//41
f 21//42 23//42 45//42 46//42
usemtl Material.004
f 2//1 4//1 14//1 13//1
f 4//2 8//2 15//2 14//2
f 8//3 6//3 16//3 15//3
f 6//4 2//4 13//4 16//4
